PERFORMER "John Digweed"
TITLE "Essential Mix (2007-10-13) [TMB]"
FILE "Essential Mix - 2007-10-13 - John Digweed.mp3" MP3
 TRACK 01 AUDIO
   TITLE "Intro"
   PERFORMER "Essential Mix"
   INDEX 01 00:00:00
 TRACK 02 AUDIO
   TITLE "Hunter"
   PERFORMER "Martin Buttrich"
   INDEX 01 01:42:00
 TRACK 03 AUDIO
   TITLE "Collapse"
   PERFORMER "Gold Ryan"
   INDEX 01 07:20:00
 TRACK 04 AUDIO
   TITLE "Last Beer On Earth"
   PERFORMER "Phonogenic"
   INDEX 01 11:19:00
 TRACK 05 AUDIO
   TITLE "Gridlock (Digweed & Muir's Stripped Down Mix)"
   PERFORMER "John Digweed"
   INDEX 01 16:15:00
 TRACK 06 AUDIO
   TITLE "Pixels (Guy Gerber Late Check Out Remix)"
   PERFORMER "Ubu"
   INDEX 01 22:45:00
 TRACK 07 AUDIO
   TITLE "Numbers"
   PERFORMER "Booka Shade"
   INDEX 01 24:53:00
 TRACK 08 AUDIO
   TITLE "ID"
   PERFORMER "ID"
   INDEX 01 30:30:00
 TRACK 09 AUDIO
   TITLE "Summit (Remix)"
   PERFORMER "Josh Gabriel"
   INDEX 01 33:50:00
 TRACK 10 AUDIO
   TITLE "ID"
   PERFORMER "Ed Rush & Optical"
   INDEX 01 40:45:00
 TRACK 11 AUDIO
   TITLE "Waters (Pierce Mix)"
   PERFORMER "Andreas Hennberg"
   INDEX 01 44:25:00
 TRACK 12 AUDIO
   TITLE "Love Water"
   PERFORMER "Maxime Dangles"
   INDEX 01 50:15:00
 TRACK 13 AUDIO
   TITLE "Rise Up"
   PERFORMER "Phoenix"
   INDEX 01 59:05:00
 TRACK 14 AUDIO
   TITLE "My Toyz"
   PERFORMER "Popof"
   INDEX 01 67:20:00
 TRACK 15 AUDIO
   TITLE "Long Shadows (Christian Prommer Mix)"
   PERFORMER "Pedro Madeira"
   INDEX 01 74:00:00
 TRACK 16 AUDIO
   TITLE "Formation Flying (Guy Gerber Jetlag Mix)"
   PERFORMER "Jack Rock"
   INDEX 01 83:00:00
 TRACK 17 AUDIO
   TITLE "Kaliber 15 A"
   PERFORMER "Kaliber"
   INDEX 01 88:20:00
 TRACK 18 AUDIO
   TITLE "Kaliber 15 B"
   PERFORMER "Kaliber"
   INDEX 01 94:00:00
 TRACK 19 AUDIO
   TITLE "Lost Though Part 1"
   PERFORMER "Popof"
   INDEX 01 102:15:00
 TRACK 20 AUDIO
   TITLE "Lost Though Part 2"
   PERFORMER "Popof"
   INDEX 01 105:30:00
 TRACK 21 AUDIO
   TITLE "G.Platz (Pig & Dan Remix)"
   PERFORMER "Nick Muir"
   INDEX 01 110:00:00
 TRACK 22 AUDIO
   TITLE "I Want Your Soul (Dusty Kid Mix)"
   PERFORMER "Armand Van Helden"
   INDEX 01 116:00:00